# xmcd
#
# Track frame offsets:
#	150
#	11549
#	22202
#	31883
#	43463
#	53420
#	63925
#	71577
#	81234
#	98634
#	110649
#	122597
#	132776
#	142166
#	150159
#	159328
#	168018
#	176067
#	186042
#
# Disc length: 2654 seconds
#
# Revision: 0
# Processed by: cddbd v1.5.2PL0 Copyright (c) Steve Scherf et al.
# Submitted via: dBpowerAMP V4.0
#
DISCID=f50a5c13
DTITLE=Singgemeinschaft Kötschach-Mauthen - 25 Jahre Singgemeinschaft Kötschach-Mauthen
DYEAR=2000
DGENRE=Vocal
TTITLE0=Landsknecht-Ständchen (Orlando die Lasso)
TTITLE1=Contrappunto bestiale alla mente (Adriano Banchieri)
TTITLE2=Opa-Opa (Von der Osterinsel)
TTITLE3=El condor pasa (Bolivianisches Volkslied/Peter Altmann)
TTITLE4=Esti Dal (Zoltan Kodaly)
TTITLE5=De sa voix "youtse" (Joseph Bovet)
TTITLE6=Tancuj (Jan Soupal)
TTITLE7=O voso galo comadre (M. Groba)
TTITLE8=Webber-Medley (Jesus Christ, Don´t cry for me, Love, Phantom of the opera Tim Rice/Andrew Lloyd Webber) Klavier: Sonja Strasser
TTITLE9=All my trials (Spiritual/Norman Luboff) Solo: Eva Gailer
TTITLE10=Il carnevale die Venezia (Gioacchino Rossini) Klavier: Sonja Strasser
TTITLE11=Wochenend und Sonnenschein (H. Anger/Ch. Amberg) Klavier: Sonja Strasser
TTITLE12=Die Köchin (Volksweise/Karl Frodl)
TTITLE13=Wen willst du denn (Volksweise/Helmut Wulz)
TTITLE14=Das Diandle, das hat halt (Volkweise/Hlemut Wulz)
TTITLE15=Da drauß`n im Wald (Volksweise/Karl Frodl)
TTITLE16=Übarn See sing i ume (Franz Stimpf/Stefan Gerdej)
TTITLE17=Wann zwa vanand scheidn (Volksweise/Helmut Wulz)
TTITLE18=Trauerliad (Franz Stimpfl/Stefan Gerdej)
EXTD=
EXTT0=
EXTT1=
EXTT2=
EXTT3=
EXTT4=
EXTT5=
EXTT6=
EXTT7=
EXTT8=
EXTT9=
EXTT10=
EXTT11=
EXTT12=
EXTT13=
EXTT14=
EXTT15=
EXTT16=
EXTT17=
EXTT18=
PLAYORDER=
